<?xml version="1.0" standalone="no"?>
<!DOCTYPE svg PUBLIC "-//W3C//DTD SVG 20010904//EN"
 "http://www.w3.org/TR/2001/REC-SVG-20010904/DTD/svg10.dtd">
<svg version="1.0" xmlns="http://www.w3.org/2000/svg"
 width="800" height="460" viewBox="100 100 800 460"
 preserveAspectRatio="xMidYMid meet">

<g transform="translate(0.000000,1024.000000) scale(0.100000,-0.100000)"
fill="#000000" stroke="none">
<path d="M4056 8719 c-6 -18 -36 -292 -36 -330 l0 -29 109 0 110 0 -5 33 c-2
17 -11 97 -20 177 -9 80 -16 146 -17 147 -1 0 -32 4 -69 8 -53 6 -69 4 -72 -6z"/>
<path d="M3750 8205 l0 -95 378 2 377 3 3 93 3 92 -381 0 -380 0 0 -95z m690
0 l0 -35 -312 2 c-293 3 -313 4 -316 21 -9 47 -12 47 318 47 l310 0 0 -35z"/>
<path d="M3408 8053 c-24 -6 -23 -39 2 -46 19 -5 20 -14 20 -121 l0 -116 63 0
63 0 -1 53 0 52 547 3 547 2 3 -102 c3 -98 4 -103 26 -106 20 -3 22 0 22 47
l0 51 55 0 55 0 0 120 c0 115 1 120 21 120 15 0 20 5 17 23 l-3 22 -710 1
c-390 1 -718 0 -727 -3z"/>
<path d="M3630 7740 l0 -70 243 0 c134 0 246 2 248 4 2 2 2 34 1 70 l-4 66
-244 0 -244 0 0 -70z"/>
<path d="M3400 7603 c-25 -1 -164 -7 -309 -12 -145 -6 -266 -13 -269 -16 -3
-2 12 -44 32 -92 21 -49 51 -123 68 -165 27 -66 36 -79 67 -93 89 -40 101 -65
101 -204 0 -65 4 -111 10 -111 5 0 107 42 227 94 120 52 328 140 463 196 135
56 265 111 290 122 l45 19 175 -74 c96 -41 322 -138 501 -216 180 -77 332
-141 338 -141 7 0 11 40 11 121 l0 122 34 31 c18 18 48 39 66 48 28 14 40 34
101 178 39 89 68 164 66 167 -3 2 -155 10 -338 18 -292 13 -1523 19 -1679 8z
m-180 -193 l0 -90 -111 0 -110 0 -40 85 c-21 47 -39 88 -39 90 0 3 68 5 150 5
l150 0 0 -90z m2090 80 c0 -5 -18 -49 -40 -96 l-40 -87 -68 6 c-37 4 -83 7
-103 7 l-36 0 -7 81 c-4 44 -4 84 -1 90 8 12 295 12 295 -1z"/>
<path d="M4153 7143 c4 -54 7 -466 7 -915 0 -531 3 -818 10 -818 10 0 125 -53
500 -230 107 -50 249 -113 315 -140 496 -198 711 -200 1328 -11 204 62 312 91
346 92 l26 0 -25 11 c-15 6 -181 14 -420 19 -507 10 -660 21 -895 64 -91 17
-293 72 -315 85 -15 9 -22 -16 301 993 55 169 99 319 99 333 0 46 -27 81 -82
107 -29 14 -150 65 -268 115 -118 49 -374 158 -568 241 -194 83 -356 151 -359
151 -3 0 -3 -44 0 -97z"/>
<path d="M3975 7193 c-44 -19 -312 -132 -595 -250 -283 -118 -523 -222 -534
-231 -10 -10 -25 -32 -33 -50 -17 -41 -24 -17 144 -537 75 -231 144 -447 154
-480 l19 -61 152 4 c233 6 471 -32 708 -112 41 -14 80 -26 86 -26 6 0 10 14 9
30 -1 17 -2 417 -3 890 -2 681 -5 860 -14 859 -7 -1 -49 -17 -93 -36z"/>
<path d="M6682 6888 c-19 -162 -25 -148 66 -148 l78 0 -8 83 c-4 45 -10 101
-13 125 l-6 42 -53 0 -52 0 -12 -102z"/>
<path d="M6510 6660 l0 -40 240 0 240 0 0 40 0 40 -240 0 -240 0 0 -40z"/>
<path d="M6348 6575 c-3 -3 1 -29 9 -57 7 -29 13 -60 13 -70 0 -13 8 -18 25
-18 23 0 25 4 25 45 l0 45 330 0 330 0 0 -45 c0 -41 2 -45 25 -45 22 0 25 4
25 38 0 20 3 54 6 75 l7 37 -395 0 c-217 0 -397 -2 -400 -5z"/>
<path d="M6462 6418 l3 -53 273 3 272 3 0 -26 0 -25 -395 0 -395 0 0 -55 0
-55 -105 0 -105 0 0 25 c0 16 6 25 15 25 10 0 15 10 15 30 l0 30 -90 0 -90 0
0 -30 c0 -25 4 -30 25 -30 25 0 25 -1 25 -85 l0 -85 -65 0 -65 0 0 -50 c0 -44
2 -50 21 -50 12 0 23 8 26 20 5 20 14 20 390 20 l384 0 20 34 c24 42 54 62
102 71 50 10 118 -24 143 -70 l19 -35 397 0 c391 0 398 0 398 -20 0 -15 7 -20
25 -20 23 0 25 3 25 50 l0 50 -75 0 -75 0 0 85 0 85 30 0 c27 0 30 3 30 30 l0
30 -95 0 -95 0 0 -30 c0 -20 5 -30 15 -30 9 0 15 -9 15 -25 l0 -25 -105 0
-105 0 0 55 0 54 -112 3 -113 3 -3 73 -3 72 -290 0 -290 0 3 -52z m278 -193
c0 -31 -3 -35 -25 -35 -22 0 -25 4 -25 35 0 31 3 35 25 35 22 0 25 -4 25 -35z
m70 0 c0 -31 -3 -35 -25 -35 -22 0 -25 4 -25 35 0 31 3 35 25 35 22 0 25 -4
25 -35z m499 -70 c29 -14 45 -38 34 -49 -4 -3 -21 -6 -40 -6 -31 0 -33 2 -33
35 0 40 1 40 39 20z m-1089 -25 c0 -28 -2 -30 -40 -30 -46 0 -54 19 -18 44 37
26 58 21 58 -14z"/>
<path d="M6699 6070 c-29 -17 -43 -65 -27 -96 30 -63 99 -69 141 -12 48 64
-42 150 -114 108z"/>
<path d="M6100 5955 c-206 -13 -376 -23 -377 -24 -7 -5 -23 -71 -23 -97 0 -25
125 -424 165 -525 5 -13 -8 -20 -66 -35 l-72 -19 44 -8 c57 -10 135 -2 201 22
211 75 446 136 617 158 l134 17 -7 150 c-3 82 -6 177 -6 212 0 60 -1 63 -35
83 -19 11 -43 36 -52 56 l-17 35 -65 -1 c-36 -1 -235 -12 -441 -24z"/>
<path d="M6867 5946 c-9 -20 -33 -46 -52 -57 l-35 -21 0 -213 0 -213 78 -6
c119 -11 234 -34 345 -70 87 -28 122 -34 237 -40 74 -3 150 -3 168 2 l34 7 79
235 c76 225 79 237 72 295 l-8 59 -40 8 c-22 3 -186 14 -365 23 -179 9 -363
19 -410 22 l-85 6 -18 -37z"/>
<path d="M3131 5500 c-351 -37 -717 -178 -994 -383 -37 -27 -66 -51 -65 -52 2
-2 55 14 118 35 355 117 718 141 1070 70 251 -51 473 -126 850 -287 501 -214
696 -279 995 -329 141 -24 492 -25 630 -1 146 26 236 51 360 100 106 42 304
147 277 147 -7 0 -66 -10 -130 -22 -95 -18 -154 -22 -312 -22 -213 0 -310 10
-500 54 -243 55 -457 134 -810 300 -537 253 -751 331 -1020 375 -118 19 -358
27 -469 15z"/>
<path d="M6570 5360 c-97 -13 -237 -46 -399 -93 l-144 -42 309 -6 c359 -7 404
-14 744 -109 330 -93 388 -103 560 -97 154 5 249 26 371 80 l54 25 -145 0
c-212 1 -317 24 -620 139 -210 79 -321 103 -510 108 -85 2 -184 0 -220 -5z"/>
<path d="M8040 5329 c-139 -34 -291 -52 -452 -53 -87 -1 -158 -2 -158 -3 0 -1
49 -18 110 -37 82 -27 127 -36 179 -36 109 0 265 52 393 130 39 24 27 24 -72
-1z"/>
<path d="M6709 4985 c-36 -7 -102 -28 -145 -47 l-79 -33 165 -6 c111 -4 216
-15 320 -34 131 -23 172 -27 265 -22 107 6 225 29 195 39 -8 3 -58 15 -110 27
-52 11 -151 37 -219 56 -107 30 -139 35 -225 34 -56 0 -131 -7 -167 -14z"/>
<path d="M2895 4984 c-107 -16 -365 -87 -401 -111 -7 -5 76 -8 185 -9 280 -1
410 -30 818 -180 311 -115 491 -150 723 -141 80 3 170 11 200 18 l55 12 -110
19 c-60 10 -156 31 -212 48 -94 27 -158 54 -472 195 -224 100 -407 144 -621
150 -74 2 -148 1 -165 -1z"/>
<path d="M3980 3900 l0 -400 80 0 80 0 0 78 c0 77 0 78 38 115 l39 38 82 -116
82 -115 95 0 c53 0 94 3 92 8 -4 10 -61 89 -148 206 -42 56 -79 107 -84 114
-5 9 28 51 104 132 l112 120 -93 0 -94 0 -112 -112 -113 -113 0 223 0 222 -80
0 -80 0 0 -400z"/>
<path d="M6602 4278 c-198 -22 -342 -190 -342 -399 0 -118 66 -249 157 -312
136 -94 318 -92 489 4 l54 31 0 164 0 164 -162 -2 -163 -3 -3 -56 -3 -57 86
-7 85 -7 0 -62 c0 -59 -2 -64 -27 -76 -42 -19 -144 -24 -188 -10 -51 17 -114
76 -137 128 -25 55 -26 163 -2 221 20 50 93 117 143 131 85 23 173 6 230 -45
l38 -34 52 53 52 53 -36 31 c-84 74 -194 105 -323 90z"/>
<path d="M1880 3884 l0 -386 238 5 c268 5 294 10 358 72 49 46 69 105 59 169
-10 57 -28 88 -75 128 l-40 35 25 23 c78 73 71 229 -13 289 -64 45 -101 51
-333 51 l-219 0 0 -386z m404 242 c40 -17 64 -65 50 -104 -16 -46 -65 -62
-186 -62 l-108 0 0 90 0 90 105 0 c67 0 118 -5 139 -14z m50 -325 c30 -28 43
-80 27 -110 -22 -41 -61 -51 -196 -51 l-125 0 0 96 0 96 134 -4 c126 -3 137
-5 160 -27z"/>
<path d="M8295 4218 c-3 -7 -6 -42 -7 -78 l-3 -65 -42 -3 -43 -3 0 -60 0 -59
44 0 44 0 3 -167 c4 -156 6 -171 28 -206 31 -51 85 -77 158 -77 61 0 133 16
133 29 0 4 -7 30 -15 57 l-14 50 -58 -1 c-79 0 -84 11 -81 180 l3 130 68 3 67
3 0 64 0 64 -67 3 -68 3 -3 73 -3 72 -70 0 c-47 0 -71 -4 -74 -12z"/>
<path d="M3540 4074 c-19 -8 -45 -25 -57 -36 l-23 -21 0 31 0 32 -80 0 -80 0
2 -287 3 -288 78 -3 77 -3 0 158 c0 87 5 174 10 194 28 99 155 131 207 52 15
-23 19 -56 23 -213 l5 -185 78 -3 77 -3 0 204 c0 224 -8 267 -58 321 -58 62
-180 85 -262 50z"/>
<path d="M4770 4081 c-78 -24 -155 -97 -185 -174 -13 -36 -17 -66 -13 -130 5
-93 27 -144 90 -204 88 -85 271 -103 384 -38 71 42 73 50 25 99 l-43 44 -41
-24 c-81 -46 -199 -23 -240 46 -10 15 -17 33 -17 39 0 8 65 11 211 11 l212 0
-6 66 c-16 170 -124 275 -282 273 -38 0 -81 -4 -95 -8z m131 -121 c42 -12 75
-44 84 -82 l7 -28 -131 0 c-103 0 -131 3 -131 14 0 27 46 80 80 92 44 16 48
16 91 4z"/>
<path d="M5495 4078 c-16 -6 -44 -21 -62 -34 -40 -31 -43 -30 -43 6 l0 30 -75
0 -75 0 0 -290 0 -290 80 0 80 0 0 168 c0 143 3 172 18 201 23 42 74 71 124
71 l38 0 0 75 0 75 -27 -1 c-16 0 -41 -5 -58 -11z"/>
<path d="M5767 4075 c-88 -34 -127 -86 -127 -172 0 -94 51 -138 195 -168 108
-21 114 -24 125 -45 36 -68 -107 -92 -231 -38 -27 11 -51 19 -53 17 -2 -2 -16
-28 -30 -57 l-27 -53 58 -27 c75 -34 233 -44 310 -18 92 31 142 104 128 192
-12 83 -74 125 -227 154 -84 15 -103 28 -94 63 12 50 126 60 212 20 40 -19 44
-17 73 50 l20 48 -47 21 c-61 28 -228 35 -285 13z"/>
<path d="M7236 4074 c-32 -10 -64 -31 -96 -63 -75 -75 -85 -101 -85 -211 0
-87 3 -100 30 -149 55 -99 149 -151 274 -151 75 0 136 17 194 56 l38 25 -41
49 -42 50 -27 -20 c-55 -38 -149 -44 -208 -12 -26 15 -63 64 -63 86 0 14 24
16 211 16 l210 0 -6 58 c-11 97 -34 152 -84 202 -76 76 -189 99 -305 64z m201
-148 c20 -21 33 -46 33 -62 l0 -27 -130 5 c-72 3 -133 7 -136 11 -4 3 2 23 13
44 26 51 74 75 137 70 42 -4 55 -10 83 -41z"/>
<path d="M7829 4074 c-88 -27 -149 -124 -129 -207 16 -72 73 -109 204 -134 99
-19 116 -27 116 -58 0 -69 -127 -74 -273 -10 -14 6 -22 -3 -41 -46 -29 -65
-26 -69 77 -101 92 -27 220 -23 290 11 69 34 92 71 92 153 0 57 -4 70 -25 94
-34 36 -94 62 -188 80 -46 9 -85 22 -96 34 -18 18 -18 20 -2 44 9 14 28 29 42
32 38 10 136 -2 171 -20 l31 -15 26 53 c14 29 26 56 26 59 0 3 -30 15 -66 27
-78 24 -186 26 -255 4z"/>
<path d="M2630 3883 c0 -109 5 -214 10 -234 15 -54 50 -101 95 -127 34 -19 51
-22 121 -20 68 3 87 7 122 31 23 15 44 27 47 27 3 0 5 -14 5 -30 l0 -31 73 3
72 3 3 288 2 287 -80 0 -80 0 0 -165 c0 -184 -10 -229 -59 -258 -33 -19 -92
-22 -122 -7 -42 23 -49 59 -49 250 l0 180 -80 0 -80 0 0 -197z"/>
<path d="M5190 3247 c-50 -25 -63 -105 -24 -148 42 -47 132 -28 153 33 29 82
-51 154 -129 115z"/>
<path d="M1870 3170 c0 -20 7 -20 1535 -20 1528 0 1535 0 1535 20 0 20 -7 20
-1535 20 -1528 0 -1535 0 -1535 -20z"/>
<path d="M5527 3184 c-3 -3 -3 -12 0 -20 4 -12 232 -14 1539 -14 1527 0 1534
0 1534 20 0 20 -7 20 -1533 20 -844 0 -1536 -3 -1540 -6z"/>
<path d="M5670 2898 c-19 -20 -19 -23 -5 -26 17 -4 55 24 55 40 0 16 -29 8
-50 -14z"/>
<path d="M2250 2843 c-30 -11 -50 -37 -50 -64 0 -36 20 -55 67 -64 66 -12 84
-46 38 -67 -20 -9 -34 -9 -61 1 -23 8 -40 9 -45 4 -16 -16 18 -36 69 -40 112
-11 144 101 37 128 -50 13 -70 31 -61 55 5 12 17 15 58 12 34 -2 53 1 55 9 8
23 -67 41 -107 26z"/>
<path d="M2430 2730 c0 -113 1 -120 20 -120 19 0 20 7 20 120 0 113 -1 120
-20 120 -19 0 -20 -7 -20 -120z"/>
<path d="M2585 2843 c-33 -8 -55 -34 -55 -64 0 -33 24 -52 86 -68 47 -13 61
-33 38 -56 -20 -19 -63 -19 -92 1 -20 14 -23 14 -28 -1 -10 -25 10 -38 68 -43
63 -5 101 18 101 61 0 38 -19 56 -69 68 -49 13 -69 31 -60 55 5 14 16 16 61
11 43 -4 55 -2 55 8 0 8 -3 16 -8 19 -14 8 -77 14 -97 9z"/>
<path d="M2808 2843 c-60 -3 -78 -7 -78 -18 0 -11 12 -15 40 -15 l40 0 0 -100
c0 -93 1 -100 20 -100 19 0 20 7 20 100 l0 100 34 0 c20 0 36 6 39 14 7 18 -2
27 -22 24 -9 -1 -51 -4 -93 -5z"/>
<path d="M2977 2844 c-4 -4 -7 -58 -7 -121 l0 -113 85 0 c78 0 85 2 85 20 0
18 -7 20 -66 20 l-65 0 3 33 c3 31 4 32 58 37 70 6 67 24 -5 28 -54 3 -55 4
-55 32 l0 30 66 0 c57 0 65 2 62 18 -3 14 -16 17 -79 20 -41 1 -78 0 -82 -4z"/>
<path d="M3417 2836 c-8 -8 -32 -44 -53 -80 l-38 -66 -43 68 c-23 37 -43 70
-43 75 0 4 -9 7 -20 7 -19 0 -20 -7 -20 -115 0 -108 1 -115 20 -115 17 0 19 8
22 76 l3 76 34 -61 c19 -33 40 -61 46 -61 6 0 27 28 46 61 l34 62 5 -74 c4
-60 8 -74 23 -77 15 -3 17 8 17 117 0 68 -4 121 -9 121 -5 0 -16 -6 -24 -14z"/>
<path d="M3553 2753 c-67 -146 -67 -143 -40 -143 16 0 26 9 34 30 11 28 14 30
67 30 52 0 57 -2 71 -30 10 -19 23 -30 36 -30 11 0 19 4 17 8 -1 5 -25 59 -52
120 -63 146 -71 146 -133 15z m89 -8 l17 -45 -39 0 c-22 0 -40 5 -40 10 0 19
29 80 37 80 5 0 16 -20 25 -45z"/>
<path d="M4200 2730 l0 -120 85 0 c78 0 85 2 85 20 0 18 -7 20 -65 20 l-65 0
0 35 0 35 55 0 c42 0 55 3 55 15 0 12 -13 15 -55 15 -54 0 -55 0 -55 30 0 29
1 29 63 32 47 2 62 7 62 18 0 12 -17 16 -82 18 l-83 3 0 -121z"/>
<path d="M4585 2834 c-47 -23 -65 -53 -65 -106 0 -89 80 -139 174 -108 35 11
36 13 36 61 0 42 -3 49 -20 49 -17 0 -20 -7 -20 -39 0 -33 -4 -40 -22 -43 -33
-5 -78 9 -94 29 -24 32 -13 103 20 125 18 12 81 9 94 -4 10 -9 16 -8 29 5 16
15 14 17 -20 32 -46 19 -74 19 -112 -1z"/>
<path d="M4852 2842 l-63 -3 3 -112 3 -112 85 0 c69 0 85 3 85 15 0 12 -16 16
-68 18 l-68 3 3 32 c3 32 4 32 61 35 77 4 72 26 -6 30 -56 3 -57 4 -57 32 l0
30 65 0 c49 0 65 3 65 14 0 17 -28 22 -108 18z"/>
<path d="M5053 2835 c-36 -15 -51 -52 -34 -83 7 -13 32 -27 65 -36 59 -18 78
-42 49 -64 -17 -13 -48 -12 -100 4 -33 9 -30 -20 2 -34 45 -21 103 -15 130 13
46 45 24 85 -56 109 -49 15 -70 39 -52 57 13 13 60 15 93 4 15 -5 20 -2 20 13
0 14 -9 21 -31 26 -42 8 -49 7 -86 -9z"/>
<path d="M5217 2843 c-19 -19 -5 -33 33 -33 l40 0 0 -100 c0 -93 1 -100 20
-100 19 0 20 7 20 100 l0 100 34 0 c32 0 55 14 43 27 -8 8 -183 14 -190 6z"/>
<path d="M5463 2843 c-10 -3 -13 -37 -13 -119 0 -107 1 -114 20 -114 19 0 20
7 20 114 0 114 -3 128 -27 119z"/>
<path d="M5623 2839 c-89 -26 -98 -170 -13 -214 107 -55 218 50 168 159 -22
49 -92 74 -155 55z m102 -54 c33 -32 34 -84 3 -112 -57 -52 -138 -19 -138 56
0 74 83 109 135 56z"/>
<path d="M5850 2730 c0 -112 1 -120 20 -120 17 0 19 8 22 78 l3 77 64 -77 c35
-43 70 -78 77 -78 11 0 14 26 14 121 0 109 -2 120 -17 117 -15 -3 -19 -17 -23
-83 l-5 -80 -54 75 c-57 78 -68 90 -88 90 -10 0 -13 -31 -13 -120z"/>
<path d="M6280 2833 c-50 -26 -76 -83 -61 -132 17 -60 53 -86 116 -86 63 0 99
26 116 85 29 96 -79 180 -171 133z m95 -29 c25 -10 47 -62 40 -95 -18 -79
-135 -81 -159 -3 -8 26 9 74 31 92 18 13 61 16 88 6z"/>
<path d="M6514 2837 c-2 -7 -3 -60 -2 -117 3 -89 5 -103 21 -106 13 -2 17 5
17 32 0 32 2 34 34 34 46 0 94 18 106 40 14 26 12 73 -3 94 -22 30 -163 49
-173 23z m134 -39 c7 -7 12 -21 12 -33 0 -32 -20 -45 -67 -45 l-43 0 0 45 0
45 43 0 c24 0 48 -5 55 -12z"/>
<path d="M6783 2843 c-22 -4 -23 -8 -23 -119 l0 -114 85 0 c78 0 85 2 85 20 0
18 -7 20 -65 20 l-65 0 0 35 0 35 55 0 c42 0 55 3 55 15 0 12 -13 15 -55 15
-54 0 -55 0 -55 30 l0 30 66 0 c57 0 65 2 62 18 -3 14 -15 17 -63 18 -33 1
-70 0 -82 -3z"/>
<path d="M6990 2731 c0 -114 1 -121 20 -121 16 0 20 7 20 35 0 33 2 35 33 35
26 0 36 -7 55 -35 13 -21 30 -35 42 -35 26 0 25 5 -5 45 l-26 33 26 26 c33 33
33 75 0 106 -19 18 -39 24 -95 28 l-70 5 0 -122z m139 57 c14 -36 -9 -62 -58
-66 l-41 -3 0 45 0 46 45 0 c38 0 47 -4 54 -22z"/>
<path d="M7301 2828 c-5 -13 -29 -68 -54 -121 -45 -95 -45 -97 -23 -97 17 0
27 9 36 30 12 28 15 30 70 30 55 0 58 -2 70 -30 8 -18 20 -30 31 -30 19 0 26
20 12 34 -5 4 -26 51 -49 104 -32 75 -46 98 -63 100 -15 2 -24 -4 -30 -20z
m52 -73 c24 -50 22 -55 -23 -55 -22 0 -40 2 -40 5 0 13 33 85 39 85 4 0 15
-16 24 -35z"/>
<path d="M7478 2843 c-34 -8 -20 -33 17 -33 l35 0 0 -100 c0 -93 1 -100 20
-100 19 0 20 7 20 100 l0 100 40 0 c29 0 40 4 40 15 0 8 -8 15 -17 15 -10 0
-45 2 -78 4 -33 1 -68 1 -77 -1z"/>
<path d="M7700 2728 c0 -108 2 -119 18 -116 15 3 17 18 20 114 2 105 1 112
-18 117 -19 5 -20 1 -20 -115z"/>
<path d="M7780 2843 c0 -5 22 -59 49 -119 66 -148 72 -148 138 0 28 63 49 117
46 119 -15 16 -43 -15 -72 -81 -19 -42 -38 -80 -41 -85 -4 -4 -23 32 -42 80
-28 67 -41 89 -57 91 -12 2 -21 -1 -21 -5z"/>
<path d="M8125 2842 c-10 -7 -105 -210 -105 -224 0 -20 40 -5 52 20 12 24 19
27 69 30 54 3 57 2 69 -28 8 -18 20 -30 31 -30 11 0 19 3 19 7 0 4 -21 55 -47
113 -42 94 -57 120 -73 120 -3 0 -10 -4 -15 -8z m39 -92 c9 -22 16 -43 16 -45
0 -3 -18 -5 -40 -5 -22 0 -40 2 -40 5 0 14 33 85 40 85 4 0 15 -18 24 -40z"/>
<path d="M3920 2725 l0 -115 60 0 c104 0 160 40 160 114 0 84 -41 116 -150
116 l-70 0 0 -115z m155 60 c31 -30 32 -73 4 -109 -17 -22 -28 -26 -70 -26
l-49 0 0 80 0 80 45 0 c35 0 52 -6 70 -25z"/>
<path d="M4805 2419 c-35 -10 -55 -34 -55 -64 0 -29 26 -51 76 -64 52 -14 72
-35 54 -56 -14 -17 -72 -20 -101 -5 -15 9 -21 7 -26 -6 -9 -24 14 -34 80 -34
64 0 97 22 97 63 0 32 -26 53 -83 68 -52 13 -67 30 -46 55 9 11 26 15 62 12
32 -2 52 1 54 9 7 19 -69 35 -112 22z"/>
<path d="M7543 2419 c-49 -14 -83 -62 -83 -116 0 -38 5 -50 34 -79 30 -30 40
-34 86 -34 64 0 104 25 120 76 32 96 -56 181 -157 153z m94 -51 c31 -29 32
-92 1 -125 -49 -52 -138 -12 -138 62 0 73 85 112 137 63z"/>
<path d="M2667 2347 c-3 -41 -3 -94 0 -116 l6 -41 74 0 c72 0 76 1 109 34 29
29 34 41 34 80 0 36 -6 52 -29 78 -28 31 -34 33 -109 36 l-79 4 -6 -75z m158
18 c30 -29 33 -83 7 -115 -13 -16 -32 -24 -70 -28 l-52 -5 0 87 0 86 45 0 c35
0 52 -6 70 -25z"/>
<path d="M2960 2305 l0 -115 85 0 c69 0 85 3 85 15 0 12 -14 15 -65 15 l-65 0
0 35 0 35 55 0 c41 0 55 4 55 14 0 11 -15 16 -52 18 -52 3 -53 4 -56 36 l-3
32 65 0 c52 0 66 3 66 15 0 12 -16 15 -85 15 l-85 0 0 -115z"/>
<path d="M3333 2385 c-33 -33 -35 -38 -31 -87 4 -42 11 -57 37 -80 26 -23 40
-28 84 -28 61 0 100 20 79 42 -10 10 -17 10 -32 0 -29 -18 -74 -15 -101 7 -19
15 -24 29 -24 66 0 37 5 51 24 66 27 22 59 24 96 7 20 -9 28 -9 38 1 20 21
-20 41 -81 41 -48 0 -58 -4 -89 -35z"/>
<path d="M3594 2386 c-29 -29 -34 -41 -34 -81 0 -40 5 -52 34 -81 29 -29 41
-34 80 -34 58 0 101 21 121 60 19 36 19 61 1 105 -18 42 -61 65 -122 65 -39 0
-51 -5 -80 -34z m140 -17 c34 -27 37 -91 4 -126 -49 -52 -138 -12 -138 62 0
72 77 109 134 64z"/>
<path d="M3870 2305 c0 -107 1 -115 20 -115 17 0 19 8 22 73 l3 72 35 -59 c20
-33 40 -61 46 -63 5 -2 28 27 49 64 l40 68 3 -77 c3 -70 5 -78 22 -78 19 0 20
7 20 115 0 106 -1 115 -19 115 -12 0 -33 -23 -61 -70 -23 -38 -46 -70 -51 -70
-4 0 -27 31 -51 70 -27 43 -50 70 -60 70 -16 0 -18 -12 -18 -115z"/>
<path d="M4210 2305 l0 -115 83 0 c56 1 88 5 101 15 24 18 25 68 2 94 -11 12
-14 21 -7 26 17 10 13 60 -7 78 -14 13 -38 17 -95 17 l-77 0 0 -115z m149 66
c16 -28 -17 -53 -66 -49 -35 3 -38 6 -41 36 l-3 32 50 0 c39 0 53 -4 60 -19z
m11 -102 c18 -33 -4 -49 -66 -49 l-54 0 0 35 0 35 55 0 c45 0 56 -4 65 -21z"/>
<path d="M4480 2331 c0 -81 2 -90 25 -114 29 -28 67 -37 113 -25 50 13 62 40
62 140 0 81 -2 88 -20 88 -18 0 -20 -7 -20 -84 0 -94 -11 -116 -59 -116 -48 0
-61 26 -61 118 0 75 -2 82 -20 82 -18 0 -20 -7 -20 -89z"/>
<path d="M4960 2405 c0 -11 11 -15 40 -15 l40 0 0 -100 c0 -93 1 -100 20 -100
19 0 20 7 20 100 l0 100 40 0 c29 0 40 4 40 15 0 12 -18 15 -100 15 -82 0
-100 -3 -100 -15z"/>
<path d="M5220 2305 c0 -108 1 -115 20 -115 19 0 20 7 20 115 0 108 -1 115
-20 115 -19 0 -20 -7 -20 -115z"/>
<path d="M5340 2305 l0 -115 85 0 c72 0 88 3 105 20 25 25 25 50 0 83 -13 16
-16 28 -10 32 5 3 10 19 10 35 0 44 -31 60 -117 60 l-73 0 0 -115z m148 61 c6
-27 -24 -46 -70 -46 -37 0 -38 1 -38 36 l0 35 52 -3 c43 -2 54 -7 56 -22z m7
-111 c0 -30 -1 -30 -57 -33 l-58 -3 0 36 0 36 58 -3 c56 -3 57 -3 57 -33z"/>
<path d="M5610 2305 l0 -115 85 0 c69 0 85 3 85 15 0 12 -14 15 -65 15 l-65 0
0 100 c0 93 -1 100 -20 100 -19 0 -20 -7 -20 -115z"/>
<path d="M5830 2305 l0 -115 90 0 c73 0 90 3 90 15 0 12 -15 15 -71 15 l-70 0
3 33 c3 32 4 32 61 35 41 2 57 7 57 17 0 10 -16 15 -57 17 -57 3 -58 3 -58 33
0 30 0 30 63 33 46 2 62 7 62 17 0 12 -17 15 -85 15 l-85 0 0 -115z"/>
<path d="M6190 2305 c0 -108 1 -115 20 -115 18 0 20 7 20 78 l1 77 33 -58 c51
-89 49 -89 98 -11 l43 69 3 -78 c3 -71 5 -77 24 -77 20 0 21 4 15 68 -4 37 -7
88 -7 115 0 72 -25 63 -79 -29 l-44 -76 -24 38 c-13 22 -33 56 -45 77 -13 21
-29 37 -40 37 -16 0 -18 -11 -18 -115z"/>
<path d="M6553 2321 c-60 -140 -58 -131 -36 -131 11 0 25 11 31 25 11 23 17
25 76 25 60 0 64 -2 70 -25 5 -18 13 -25 31 -25 23 0 23 1 -29 113 -44 93 -57
112 -77 115 -22 2 -28 -7 -66 -97z m87 9 c11 -21 20 -43 20 -47 0 -5 -18 -7
-41 -5 -33 3 -39 7 -34 21 4 9 12 28 17 44 5 15 12 27 14 27 2 0 13 -18 24
-40z"/>
<path d="M6800 2305 c0 -108 1 -115 20 -115 16 0 20 7 20 35 0 33 2 35 35 35
29 0 39 -6 57 -35 15 -23 31 -35 46 -35 l23 0 -26 35 -27 34 21 22 c21 23 29
82 13 105 -15 23 -53 34 -116 34 l-66 0 0 -115z m134 72 c12 -9 17 -23 14 -42
-3 -32 -42 -51 -83 -41 -22 6 -25 12 -25 51 l0 45 38 0 c21 0 46 -6 56 -13z"/>
<path d="M7060 2305 c0 -108 1 -115 20 -115 19 0 20 7 20 115 0 108 -1 115
-20 115 -19 0 -20 -7 -20 -115z"/>
<path d="M7180 2305 c0 -108 1 -115 20 -115 18 0 20 7 20 75 0 41 4 75 8 75 4
0 34 -34 67 -75 35 -45 66 -75 77 -75 16 0 18 10 18 115 0 108 -1 115 -20 115
-17 0 -19 -8 -22 -77 l-3 -78 -64 78 c-38 46 -71 77 -82 77 -17 0 -19 -9 -19
-115z"/>
</g>

</svg>
