<?xml version="1.0" standalone="no"?>
<!DOCTYPE svg PUBLIC "-//W3C//DTD SVG 20010904//EN"
 "http://www.w3.org/TR/2001/REC-SVG-20010904/DTD/svg10.dtd">
<svg version="1.0" xmlns="http://www.w3.org/2000/svg"
 width="850.000000pt" height="754.000000pt" viewBox="0 0 850.000000 754.000000"
 preserveAspectRatio="xMidYMid meet">

<g transform="translate(0.000000,754.000000) scale(0.100000,-0.100000)"
fill="#ffffff" stroke="none">
<path d="M4015 7108 c-3 -7 -6 -98 -7 -203 l-3 -190 -57 -3 -57 -3 -5 -42 c-7
-50 -26 -265 -26 -289 0 -14 8 -18 38 -18 21 0 41 -2 43 -4 3 -3 3 -23 1 -45
-4 -37 -7 -41 -32 -41 -26 0 -29 -4 -40 -52 -6 -29 -14 -72 -17 -95 l-6 -43
-63 0 -64 0 0 -60 0 -60 315 0 315 0 0 60 0 60 -64 0 c-72 0 -67 -6 -86 95
-18 94 -18 95 -51 95 -28 0 -29 2 -29 44 l0 45 43 3 c35 2 42 6 41 23 -1 11
-7 89 -14 173 l-13 152 -58 0 -59 0 -2 202 c-3 184 -5 203 -21 206 -9 2 -19
-2 -22 -10z"/>
<path d="M3324 5877 c-3 -8 -4 -47 -2 -88 l3 -74 57 -3 57 -3 3 -37 3 -37 583
-3 582 -2 0 40 0 40 65 0 65 0 0 90 0 90 -705 0 c-582 0 -707 -2 -711 -13z"/>
<path d="M2848 5298 l-3 -253 -311 -5 -310 -5 35 -159 36 -158 53 5 c59 6 64
-1 37 -54 -18 -34 -20 -30 88 -151 l57 -65 0 -72 c0 -86 -28 -88 235 19 211
87 641 260 1018 412 l248 100 37 -16 c20 -8 91 -37 157 -64 66 -27 381 -156
700 -287 319 -130 586 -239 593 -242 9 -4 12 14 12 72 l0 78 86 93 c84 92 86
95 75 125 -16 47 -15 49 33 49 l44 0 30 128 c17 70 33 142 37 159 l7 33 -314
2 -313 3 -3 253 -2 252 -1180 0 -1180 0 -2 -252z m632 -38 l0 -90 -187 2 -188
3 -3 88 -3 87 191 0 190 0 0 -90z m498 3 l-3 -88 -187 -3 -188 -2 0 90 0 90
190 0 191 0 -3 -87z m492 -3 l0 -90 -190 0 -190 0 0 90 0 90 190 0 190 0 0
-90z m490 0 l0 -90 -190 0 -190 0 0 90 0 90 190 0 190 0 0 -90z m-2115 -373
c3 -12 5 -52 3 -87 l-3 -65 -217 -3 c-120 -1 -218 1 -218 5 0 5 -9 45 -19 91
l-19 82 234 0 234 0 5 -23z m2845 11 c0 -7 -8 -48 -17 -90 l-16 -78 -221 2
-221 3 0 70 c-1 116 -26 105 241 105 178 0 234 -3 234 -12z"/>
<path d="M3485 4569 c-258 -104 -719 -289 -1023 -410 -554 -222 -592 -240
-592 -285 0 -7 34 -130 76 -271 42 -142 99 -339 128 -439 50 -176 53 -182 105
-242 30 -35 69 -72 87 -83 l33 -20 -35 -57 c-61 -102 -77 -19 166 -842 59
-201 113 -383 119 -406 l11 -41 87 -12 c286 -42 694 -179 1139 -384 78 -36
151 -68 163 -72 l21 -6 0 1880 c0 1035 -3 1881 -7 1881 -5 -1 -219 -86 -478
-191z m-60 -745 c0 -38 -1 -189 -3 -336 l-2 -266 -67 -11 c-38 -6 -229 -33
-427 -61 -320 -45 -360 -49 -380 -36 -18 11 -31 50 -70 205 -45 178 -48 192
-33 214 11 18 52 37 149 72 294 105 716 257 763 275 28 10 55 18 60 16 6 -1
10 -34 10 -72z m-3 -1471 c2 -227 -1 -485 -6 -490 -3 -4 -550 224 -597 248
-29 14 -41 28 -49 56 -35 129 -92 362 -92 380 -1 53 -4 53 383 53 l359 0 2
-247z"/>
<path d="M4070 2856 c0 -1356 3 -1907 11 -1912 25 -15 313 -34 539 -34 251 0
452 15 607 46 78 16 83 18 92 48 6 17 38 119 71 226 186 590 492 1613 498
1666 5 43 -12 87 -44 115 -22 18 -873 175 -899 165 -13 -5 -15 -40 -13 -288
l3 -283 202 -5 c111 -3 205 -8 209 -12 13 -14 6 -63 -40 -253 -29 -119 -52
-195 -63 -207 -10 -9 -67 -38 -128 -64 -282 -119 -490 -204 -497 -204 -4 0 -8
459 -8 1020 0 759 3 1020 11 1020 11 0 730 -259 890 -321 93 -36 99 -48 76
-139 l-15 -60 37 -10 c156 -42 271 -70 292 -69 13 0 51 17 84 37 69 43 67 39
151 317 57 189 62 220 41 249 -7 10 -294 130 -657 276 -355 142 -724 291 -820
330 -601 246 -611 250 -622 250 -4 0 -8 -857 -8 -1904z"/>
<path d="M1880 1334 c-228 -26 -359 -52 -555 -110 -264 -79 -484 -181 -699
-325 -117 -79 -284 -218 -246 -205 8 2 60 23 115 46 763 317 1451 323 2262 19
157 -59 204 -79 572 -243 595 -267 862 -358 1236 -423 140 -24 518 -24 665 0
219 36 449 106 785 240 252 100 372 142 477 166 117 27 302 51 397 51 164 0
445 -40 661 -95 52 -13 96 -22 98 -21 6 7 -115 76 -202 116 -276 128 -517 178
-806 167 -219 -8 -366 -45 -589 -147 -337 -153 -692 -188 -1111 -109 -293 56
-521 139 -1120 411 -463 210 -731 311 -1023 384 -242 61 -363 76 -637 79 -135
2 -261 1 -280 -1z"/>
<path d="M6270 1095 c-155 -22 -283 -53 -490 -120 -337 -110 -447 -135 -680
-156 -216 -20 -569 0 -787 45 -35 7 -63 9 -63 6 0 -9 323 -138 435 -174 307
-100 607 -129 873 -86 135 22 269 65 497 159 260 108 470 149 705 138 194 -10
415 -55 577 -117 73 -28 107 -35 406 -75 20 -3 37 -3 37 -1 0 8 -218 126 -350
190 -209 100 -414 162 -630 191 -129 18 -402 18 -530 0z"/>
<path d="M1560 760 c-202 -16 -415 -68 -596 -145 -101 -43 -159 -76 -109 -61
103 29 428 49 604 36 350 -25 604 -90 1101 -280 523 -200 719 -243 1080 -238
l185 3 -95 34 c-137 49 -338 136 -640 276 -383 178 -560 247 -793 305 -233 60
-529 88 -737 70z"/>
</g>
</svg>
